# xmcd
#
# Track frame offsets: 
#        150
#        13769
#        29410
#        38539
#        49887
#        66477
#        78246
#        86680
#        96935
#        107237
#        119567
#        129978
#        137761
#        152949
#        165462
#        179748
#        189535
#        198612
#        208352
#        215509
#        228712
#        242166
#        248183
#        254524
#        261867
#        267408
#        270858
#        276130
#        281179
#        287910
#        298126
#
# Disc length: 4193 seconds
#
# Revision: 1
# Processed by: cddbd v1.5.2PL0 Copyright (c) Steve Scherf et al.
# Submitted via: ExactAudioCopy v0.99pb5
#
DISCID=f4105f1f
DTITLE=Various Artist - 86 Xronia Elatos Cd2
DYEAR=1900
DGENRE=Hellenic Traditional
TTITLE0=лиа йоййиможояелемг
TTITLE1=паидиа л'  циати ' сте амакаца
TTITLE2=о бкавохамасгс 
TTITLE3=г  кидыяийиытисса
TTITLE4=поиос евеи дуо ацапгтийес
TTITLE5=то бкепете йеимо то боумо
TTITLE6=сглеяа циыяцг  еим' пасвакиа
TTITLE7=сам пгяа емам йатгжояо
TTITLE8=ема лийяо бкавопоуко
TTITLE9=стом адг ха йатебы
TTITLE10=лаяциокийо
TTITLE11=лиа жояа еим' г кебемтиа
TTITLE12=тфоулеяйа лоу пеягжама
TTITLE13=ам л' ацапас ма лоу то пеис
TTITLE14=пяытолациа
TTITLE15=ти евеис ягма
TTITLE16=пеяаса выяес йаи выяиа
TTITLE17=та яитса
TTITLE18=стг бяусг тгм йяуобяусг
TTITLE19=ти ле йоитас поу цеяаса
TTITLE20=йкысса л' та поукиа
TTITLE21=то папайи
TTITLE22=йояг поу пас стом потало
TTITLE23=тгм ацапг лоу тгм апохулгса
TTITLE24=бяусг лоу лакалатемиа
TTITLE25=ма'ва меяатфи
TTITLE26=соукилиытисса
TTITLE27=паяе лаяиы л'  тг яойа соу
TTITLE28=йеяма лас лауяолата лоу
TTITLE29=лас пгяе то потали
TTITLE30=ваяитылемг сумтяожиа
EXTD=
EXTT0=
EXTT1=
EXTT2=
EXTT3=
EXTT4=
EXTT5=
EXTT6=
EXTT7=
EXTT8=
EXTT9=
EXTT10=
EXTT11=
EXTT12=
EXTT13=
EXTT14=
EXTT15=
EXTT16=
EXTT17=
EXTT18=
EXTT19=
EXTT20=
EXTT21=
EXTT22=
EXTT23=
EXTT24=
EXTT25=
EXTT26=
EXTT27=
EXTT28=
EXTT29=
EXTT30=
PLAYORDER=
